<svg width="512" height="512" viewBox="0 0 512 512" xmlns="http://www.w3.org/2000/svg">
  <!-- Background -->
  <rect width="512" height="512" fill="#1a1a1a" rx="64"/>
  
  <!-- Game Board -->
  <g transform="translate(106, 106)">
    <!-- Grid lines -->
    <rect x="0" y="0" width="300" height="300" fill="none" stroke="#333" stroke-width="6"/>
    <!-- Vertical lines -->
    <line x1="100" y1="0" x2="100" y2="300" stroke="#333" stroke-width="6"/>
    <line x1="200" y1="0" x2="200" y2="300" stroke="#333" stroke-width="6"/>
    <!-- Horizontal lines -->
    <line x1="0" y1="100" x2="300" y2="100" stroke="#333" stroke-width="6"/>
    <line x1="0" y1="200" x2="300" y2="200" stroke="#333" stroke-width="6"/>
    
    <!-- X marks -->
    <g stroke="#00bfff" stroke-width="8" fill="none">
      <line x1="20" y1="20" x2="80" y2="80"/>
      <line x1="80" y1="20" x2="20" y2="80"/>
      
      <line x1="120" y1="120" x2="180" y2="180"/>
      <line x1="180" y1="120" x2="120" y2="180"/>
      
      <line x1="220" y1="220" x2="280" y2="280"/>
      <line x1="280" y1="220" x2="220" y2="280"/>
    </g>
    
    <!-- O marks -->
    <g stroke="#ff4757" stroke-width="8" fill="none">
      <circle cx="150" cy="50" r="30"/>
      <circle cx="50" cy="150" r="30"/>
      <circle cx="250" cy="150" r="30"/>
    </g>
  </g>
</svg>
